# xmcd CD database file
#
# Track frame offsets:
#	150
#	9219
#	26476
#	46572
#	63880
#	77155
#	105145
#	129309
#	148587
#	165690
#	178572
#
# Disc length: 2678 seconds
#
# Revision: 0
# Processed by: cddbd v1.5.2PL0 Copyright (c) Steve Scherf et al.
# Submitted via: CDex 1.51
#
DISCID=740a740b
DTITLE=Yana Bibb - Afternoon In Paris
DYEAR=2016
DGENRE=Jazz
TTITLE0=Buck
TTITLE1=Bessie's Advice
TTITLE2=You and I
TTITLE3=I Will
TTITLE4=New Home
TTITLE5=Black Coffee
TTITLE6=For You
TTITLE7=Goodbye New York City
TTITLE8=Syster Min
TTITLE9=Karleks Vals
TTITLE10=Before You Go
EXTD=YEAR: 2016
EXTT0=
EXTT1=
EXTT2=
EXTT3=
EXTT4=
EXTT5=
EXTT6=
EXTT7=
EXTT8=
EXTT9=
EXTT10=
PLAYORDER=
